<?xml version="1.0" standalone="no"?>
<!DOCTYPE svg PUBLIC "-//W3C//DTD SVG 1.1//EN" "http://www.w3.org/Graphics/SVG/1.1/DTD/svg11.dtd">
<svg width="32px" height="32px" version="1.1" xmlns="http://www.w3.org/2000/svg" xmlns:xlink="http://www.w3.org/1999/xlink" xml:space="preserve" style="fill-rule:evenodd;clip-rule:evenodd;stroke-linejoin:round;stroke-miterlimit:1.41421;">
    <g>
        <g id="Layer1">
            <path d="M-0.451363,5.71504L-0.322694,-0.93826L17.6655,-0.803826L25.2599,-1.12458L33.0439,-0.897379L32.4208,5.70063L32.2551,32.322L-0.142662,32.36L-0.451363,5.71504Z" style="fill:url(#tag1);"/>
            <g>
                <path d="M23.8018,4.91341C23.8512,4.81458 23.9068,4.71576 23.9686,4.61694C24.0304,4.51811 24.1354,4.444 24.2836,4.39458C24.4318,4.34517 24.6295,4.30194 24.8765,4.26488C25.1236,4.22782 25.4695,4.20929 25.9142,4.20929C26.1118,4.20929 26.3712,4.20311 26.6924,4.19076C27.0136,4.17841 27.3595,4.16605 27.7301,4.1537C28.1006,4.14135 28.4774,4.12282 28.8603,4.09811C29.2433,4.07341 29.5953,4.0487 29.9165,4.024C29.9659,4.27105 29.9906,4.4687 29.9906,4.61694C29.9906,5.01223 29.8671,5.22223 29.62,5.24693C28.7306,5.37046 28.1377,5.53723 27.8412,5.74723C27.5448,5.95723 27.3965,6.23517 27.3965,6.58105C27.3965,6.60575 27.4151,6.93311 27.4521,7.56311C27.4892,8.1931 27.5448,9.2431 27.6189,10.7131C27.693,12.1831 27.7856,14.141 27.8968,16.5869C28.008,19.0328 28.1377,22.0716 28.2859,25.7034C28.3106,26.1728 28.4712,26.5186 28.7677,26.741C29.0642,26.9634 29.6695,27.1486 30.5836,27.2969C30.7071,27.3216 30.7997,27.3895 30.8615,27.5007C30.9233,27.6119 30.9542,27.7416 30.9542,27.8898C30.9542,28.0381 30.9295,28.2357 30.88,28.4828C30.0153,28.4334 29.2309,28.3901 28.5268,28.3531C27.8227,28.316 27.1742,28.2975 26.5812,28.2975C26.3342,28.2975 26.0253,28.3036 25.6548,28.316C25.2842,28.3284 24.8951,28.3407 24.4874,28.3531C24.0798,28.3654 23.6783,28.3839 23.283,28.4086C22.8877,28.4334 22.5418,28.4581 22.2454,28.4828C22.1959,28.2357 22.1712,28.0381 22.1712,27.8898C22.1712,27.4945 22.2948,27.2969 22.5418,27.2969C23.5301,27.0992 24.2033,26.9016 24.5615,26.7039C24.9198,26.5063 25.0989,26.1728 25.0989,25.7034C25.0989,25.6292 25.0804,25.1722 25.0433,24.3322C25.0062,23.4922 24.9568,22.4669 24.8951,21.2563C24.8333,20.0457 24.7715,18.7363 24.7098,17.3281C24.648,15.9199 24.5862,14.5919 24.5245,13.3443C24.4627,12.0966 24.4071,11.0219 24.3577,10.1202C24.3083,9.2184 24.2836,8.66869 24.2836,8.47104L16.1677,28.0751C16.0689,28.2975 15.9763,28.4642 15.8898,28.5754C15.8033,28.6866 15.686,28.7422 15.5377,28.7422C15.3648,28.7422 15.2536,28.7298 15.2042,28.7051L6.12481,7.8781C6.1001,8.12516 6.06922,8.72428 6.03216,9.67545C5.9951,10.6266 5.94569,11.7569 5.88393,13.0663C5.82216,14.3757 5.75422,15.7593 5.6801,17.2169C5.60598,18.6746 5.53804,20.021 5.47628,21.2563C5.41451,22.4916 5.3651,23.5292 5.32804,24.3692C5.29099,25.2092 5.27246,25.6539 5.27246,25.7034C5.27246,26.4692 6.11245,27.0004 7.79245,27.2969C8.03951,27.3216 8.16304,27.5192 8.16304,27.8898C8.16304,28.0381 8.13833,28.2357 8.08892,28.4828C7.42186,28.4334 6.76716,28.3901 6.12481,28.3531C5.48246,28.316 4.91422,28.2975 4.42011,28.2975C4.02481,28.2975 3.49364,28.316 2.82658,28.3531C2.15952,28.3901 1.52952,28.4334 0.936584,28.4828C0.887172,28.2357 0.862466,28.0381 0.862466,27.8898C0.862466,27.5439 0.985995,27.3463 1.23305,27.2969C1.90011,27.1734 2.43746,26.9942 2.84511,26.7595C3.25275,26.5248 3.48128,26.1728 3.5307,25.7034C3.5307,25.481 3.5554,24.8572 3.60481,23.8319C3.65422,22.8066 3.70981,21.5898 3.77158,20.1816C3.83334,18.7734 3.90128,17.2787 3.9754,15.6975C4.04952,14.1163 4.11746,12.6525 4.17922,11.306C4.24099,9.95957 4.2904,8.84781 4.32746,7.97075C4.36452,7.09369 4.38305,6.64281 4.38305,6.61811C4.38305,6.22281 4.22863,5.93252 3.91981,5.74723C3.61099,5.56193 3.02423,5.39517 2.15952,5.24693C1.91246,5.22223 1.78893,5.01223 1.78893,4.61694C1.78893,4.4687 1.81364,4.27105 1.86305,4.024C2.18423,4.0487 2.54864,4.07341 2.95628,4.09811C3.36393,4.12282 3.77158,4.14135 4.17922,4.1537C4.58687,4.16605 4.97599,4.17841 5.34657,4.19076C5.71716,4.20311 6.01363,4.20929 6.23598,4.20929C6.68069,4.20929 7.02657,4.22782 7.27363,4.26488C7.52069,4.30194 7.71833,4.34517 7.86657,4.39458C8.0148,4.444 8.1198,4.51811 8.18157,4.61694C8.24333,4.71576 8.29892,4.81458 8.34833,4.91341L16.2789,23.4057L23.8018,4.91341Z" style="fill:black;fill-rule:nonzero;"/>
            </g>
        </g>
    </g>
    <defs>
        <linearGradient id="tag1" x1="0" y1="0" x2="1" y2="0" gradientUnits="userSpaceOnUse" gradientTransform="matrix(0.0204403,-16.3491,16.3491,0.0204403,15.1558,32.143)"><stop offset="0%" style="stop-color:white;stop-opacity:1"/><stop offset="100%" style="stop-color:rgb(0,200,255);stop-opacity:1"/></linearGradient>
    </defs>
</svg>
